<?xml version="1.0" encoding="UTF-8"?>
<svg width="160px" height="160px" viewBox="0 0 160 160" version="1.1" xmlns="http://www.w3.org/2000/svg" xmlns:xlink="http://www.w3.org/1999/xlink">
    <!-- Generator: Sketch 52.6 (67491) - http://www.bohemiancoding.com/sketch -->
    <title>404</title>
    <desc>Created with Sketch.</desc>
    <defs>
        <linearGradient x1="50%" y1="0%" x2="50%" y2="100%" id="linearGradient-1">
            <stop stop-color="#FA8C80" offset="0%"></stop>
            <stop stop-color="#FC61A4" offset="100%"></stop>
        </linearGradient>
        <circle id="path-2" cx="77.5" cy="77.5" r="77.5"></circle>
        <linearGradient x1="40.6901035%" y1="100%" x2="40.6901035%" y2="0%" id="linearGradient-4">
            <stop stop-color="#2E87D6" offset="0%"></stop>
            <stop stop-color="#1C67C4" offset="100%"></stop>
        </linearGradient>
        <linearGradient x1="50%" y1="4.85450634%" x2="50%" y2="37.2735507%" id="linearGradient-5">
            <stop stop-color="#3550B2" offset="0%"></stop>
            <stop stop-color="#206EC8" stop-opacity="0" offset="100%"></stop>
        </linearGradient>
        <linearGradient x1="50%" y1="4.85450634%" x2="50%" y2="185.67118%" id="linearGradient-6">
            <stop stop-color="#3550B2" offset="0%"></stop>
            <stop stop-color="#216FC9" stop-opacity="0" offset="100%"></stop>
        </linearGradient>
        <path d="M17.6648448,5.74504464 C18.433482,10.6221426 17.1720724,15.2414345 13.5022565,16.6512902 C11.0557126,17.591194 8.16124297,16.6454189 4.81884766,13.8139648 L0.399986913,14.5587858 C0.3013341,11.8543696 0.168005129,9.71075085 -2.14939178e-13,8.12792969 C1.20656567,7.83950927 1.99310539,7.46353271 2.35961914,7 C2.65669156,3.33268948 3.25677583,1.49903423 4.15987195,1.49903423 C5.51451614,1.49903423 6.8457898,1.45552947 6.8457898,3.81767656 C6.8457898,6.17982365 7.56506748,1.63476073e-14 10.5321222,1.59872116e-14 C13.4991768,1.59872116e-14 16.8962076,0.867946725 17.6648448,5.74504464 Z" id="path-7"></path>
        <linearGradient x1="50%" y1="100%" x2="50%" y2="3.061617e-15%" id="linearGradient-9">
            <stop stop-color="#84E3E2" offset="0%"></stop>
            <stop stop-color="#3D91DA" offset="100%"></stop>
        </linearGradient>
        <linearGradient x1="50%" y1="100%" x2="50%" y2="3.061617e-15%" id="linearGradient-10">
            <stop stop-color="#F1F7FA" offset="0%"></stop>
            <stop stop-color="#DEEBF4" offset="100%"></stop>
        </linearGradient>
    </defs>
    <g id="常见样式规范" stroke="none" stroke-width="1" fill="none" fill-rule="evenodd">
        <g id="插图页面" transform="translate(-633.000000, -926.000000)">
            <g id="404" transform="translate(112.000000, 873.000000)">
                <g id="分组-3" transform="translate(523.000000, 55.000000)">
                    <mask id="mask-3" fill="white">
                        <use xlink:href="#path-2"></use>
                    </mask>
                    <use id="椭圆形" fill="url(#linearGradient-1)" fill-rule="nonzero" xlink:href="#path-2"></use>
                    <circle id="椭圆形" fill="#FC92B6" fill-rule="nonzero" mask="url(#mask-3)" cx="130" cy="34.6951878" r="35"></circle>
                    <circle id="椭圆形" fill="#FC92B6" fill-rule="nonzero" mask="url(#mask-3)" cx="13" cy="41" r="26"></circle>
                    <path d="M28.8,56 L146.2,56 C151.060106,56 155,59.9398942 155,64.8 L155,156 L20,156 L20,64.8 C20,59.9398942 23.9398942,56 28.8,56 Z" id="矩形" fill="url(#linearGradient-4)" fill-rule="nonzero"></path>
                    <path d="M114,56.5447556 C119.239909,61.909287 128.196452,61.7387695 140.869629,56.0332031 C141.701172,56.0332031 144.328125,56.0332031 145.204834,56.0332031 C144.585693,56.8813477 143.880697,57.6573486 143.089844,58.3612061 C130.928682,68.8933886 121.046358,72.0852424 113.442871,67.9367676 C113.997884,60.9009603 114.183594,57.1036229 114,56.5447556 Z" id="路径-24" fill="#2B4498" fill-rule="nonzero"></path>
                    <path d="M72,56 L79.34375,69.5644531 C80.5742187,97.188151 76.7786458,115.666667 67.9570312,125 C66.0488281,124.724609 65.0501302,124.294596 64.9609375,123.709961 L63.4306641,69.5644531 C58.476888,64.5911458 54.6666667,60.0696615 52,56 C60.6992187,56.0917969 67.3658854,56.0917969 72,56 Z" id="路径-25" fill="url(#linearGradient-5)" fill-rule="nonzero"></path>
                    <path d="M108.208008,58.9257812 C105.624186,70.7890625 96.0292155,74.3603516 79.4230957,69.6396484 C76.5910645,64.5022786 74.1166992,59.9557292 72,56 L108.208008,56 L108.208008,58.9257812 Z" id="路径-22" fill="url(#linearGradient-6)" fill-rule="nonzero"></path>
                    <g id="路径-39" transform="translate(113.000000, 44.000000)">
                        <mask id="mask-8" fill="white">
                            <use xlink:href="#path-7"></use>
                        </mask>
                        <use id="Mask" fill="#FDAD8C" fill-rule="nonzero" xlink:href="#path-7"></use>
                        <path d="M8.23456692,6.67333984 C8.56933594,5.85400391 14.9992154,3.38012695 16.3823242,7.33105469 C17.7654331,11.2819824 17.7654331,14.4946289 13,16.8417969 C10.9750977,17.6293945 6.90341746,15.5771484 6.18554688,14.7885742 C5.46767629,14 6.78515625,7.79248047 8.23456692,6.67333984 Z" fill="#FDBA9F" fill-rule="nonzero" mask="url(#mask-8)"></path>
                        <path d="M13.6513672,8 C14.6364092,9.70657161 15.0701657,10.9815553 14.9526367,11.8249512 C14.7763432,13.0900449 13.4016113,13.0534668 12.9705627,12.885498 C12.8367194,12.1911061 13.0636542,10.5626068 13.6513672,8 Z" id="路径-17" fill="#FDAD8C" fill-rule="nonzero" mask="url(#mask-8)"></path>
                    </g>
                    <path d="M114.328917,45.0524319 C114.328917,43.8128721 113.939325,39 122.231161,39 C130.522998,39 135.529888,39.0820577 131.681924,50.3272179 C130.435247,53.4655159 128.188432,45.2200795 122.231161,46.0460904 C121.076801,46.0189189 120.432466,47.4459615 120.298155,50.3272179 L119.298342,50.3272179 C119.431579,48.0774251 118.975637,46.9525286 117.930517,46.9525286 C116.362836,46.9525286 115.934473,50.4853555 115.934473,51.5982965 C115.347254,51.5982965 115.934473,51.5982965 114.328917,51.9958143 C113.588854,52.1790456 114.328917,46.2919916 114.328917,45.0524319 Z" id="路径" fill="#45170D" fill-rule="nonzero"></path>
                    <path d="M70,53.7013643 C82.0479822,46.2478465 93.5658932,43.0892087 104.553733,44.225451 C112.393584,45.1513583 115.689508,50.8390747 114.041546,65.3586893 C112.942904,75.0384324 113.398131,84.9188693 115.407227,95 L112,95 C109.137769,92.8124792 106.187574,87.3539831 103.149414,78.6245117 C98.5921747,65.5303046 99.4453125,59.0490723 99,56 C93.6204427,56.0473633 84.2871094,56.0473633 71,56 L70,53.7013643 Z" id="路径-18" fill="url(#linearGradient-9)" fill-rule="nonzero"></path>
                    <path d="M72,56 C62.6899884,43.0466868 52.2044776,38.4704884 40.5434675,42.2714047 C31.2757839,46.1735311 26.5945146,68.6324837 29.9854193,95 C32.2818936,95 33.5364283,95 33.7490234,95 L46.0199238,56 L72,56 Z" id="路径-19" fill="#193461" fill-rule="nonzero"></path>
                    <path d="M115.356643,95 C118.124417,96.6389974 119.128291,97.4584961 118.368264,97.4584961 C117.608238,97.4584961 116.823928,97.4584961 116.015334,97.4584961 C116.641342,101.608398 116.326904,103.68335 115.072021,103.68335 C113.189697,103.68335 111.900588,98 111.900588,95 C113.455276,94.9176812 114.607294,94.9176812 115.356643,95 Z" id="路径-21" fill="#FDAD8C" fill-rule="nonzero"></path>
                    <path d="M29.9854193,95 C28.6618064,99.9275362 28,103.095238 28,104.503106 C28,105.910973 30,103.887558 34,98.4328613 L33.7172852,95 L29.9854193,95 Z" id="路径-20" fill="#68B1F1" fill-rule="nonzero"></path>
                    <path d="M140.855469,56.0229792 C142.617106,55.0588479 144.078304,54.5339618 145.239063,54.448321 C147.555542,54.3604736 149.854443,58.7988637 149.622656,59.312823 C149.390869,59.8267822 148.976271,60.312823 147.126953,60.312823 C145.894075,60.312823 143.80358,58.882875 140.855469,56.0229792 Z" id="路径-23" fill="#FDAD8C" fill-rule="nonzero"></path>
                    <path d="M51.9064713,91.9824561 L58.9821734,91.9824561 L58.9821734,127.70313 L66.6239316,127.70313 L66.6239316,134.287238 L58.9821734,134.287238 L58.9821734,146.017544 L51.6234432,146.017544 L51.6234432,134.287238 L27,134.287238 L27,126.49226 L51.9064713,91.9824561 Z M51.8082368,102.789474 L33.2564103,128.333333 L52.025641,128.333333 L52.025641,102.789474 L51.8082368,102.789474 Z M88,91 C93.9411648,91 98.5384947,93.6415094 101.79199,99 C104.762572,103.981132 106.247863,110.622642 106.247863,119 C106.247863,127.301887 104.762572,134.018868 101.79199,139 C98.5384947,144.283019 93.9411648,147 88,147 C82.0588352,147 77.4615053,144.283019 74.2080103,139 C71.2374279,134.018868 69.7521368,127.377358 69.7521368,119 C69.7521368,110.54717 71.2374279,103.90566 74.2080103,99 C77.4615053,93.6415094 82.0588352,91 88,91 Z M88.5213675,96.8947368 C84.419943,96.8947368 81.5698006,99.3174244 79.9014245,104.238508 C78.6501425,107.569704 78.0940171,112.187952 78.0940171,118.017544 C78.0940171,123.771427 78.6501425,128.389675 79.9014245,131.796579 C81.5698006,136.641954 84.419943,139.140351 88.5213675,139.140351 C92.5532764,139.140351 95.4729345,136.641954 97.1413105,131.796579 C98.3230769,128.389675 98.9487179,123.771427 98.9487179,118.017544 C98.9487179,112.187952 98.3230769,107.569704 97.1413105,104.238508 C95.4729345,99.3174244 92.5532764,96.8947368 88.5213675,96.8947368 Z M134.28254,91.9824561 L141.358242,91.9824561 L141.358242,127.70313 L149,127.70313 L149,134.287238 L141.358242,134.287238 L141.358242,146.017544 L133.999512,146.017544 L133.999512,134.287238 L109.376068,134.287238 L109.376068,126.49226 L134.28254,91.9824561 Z M134.184305,102.789474 L115.632479,128.333333 L134.401709,128.333333 L134.401709,102.789474 L134.184305,102.789474 Z" id="404" fill="url(#linearGradient-10)"></path>
                </g>
            </g>
        </g>
    </g>
</svg>