<?xml version="1.0" standalone="no"?><!DOCTYPE svg PUBLIC "-//W3C//DTD SVG 1.1//EN" "http://www.w3.org/Graphics/SVG/1.1/DTD/svg11.dtd"><svg t="1576822294114" class="icon" viewBox="0 0 1024 1024" version="1.1" xmlns="http://www.w3.org/2000/svg" p-id="5499" xmlns:xlink="http://www.w3.org/1999/xlink" width="200" height="200"><defs><style type="text/css"></style></defs><path d="M960 483.2a1390.08 1390.08 0 0 1-134.4 64 1013.12 1013.12 0 0 1-198.4 57.6 361.6 361.6 0 0 0 204.8 217.6 448 448 0 0 0 128-313.6z m-646.4 64a320 320 0 0 0 76.8 12.8A946.56 946.56 0 0 1 486.4 64a456.32 456.32 0 0 0-320 160 398.08 398.08 0 0 1 147.2 323.2z m-57.6-12.8a335.36 335.36 0 0 0-115.2-262.4A364.8 364.8 0 0 0 70.4 448 992 992 0 0 0 256 540.8z m358.4 32a576 576 0 0 0 326.4-153.6 417.92 417.92 0 0 0-121.6-211.2c-64 54.4-204.8 198.4-204.8 364.8z m-185.6 6.4a936.96 936.96 0 0 0 140.8 0c-19.2-185.6 147.2-345.6 217.6-409.6A426.88 426.88 0 0 0 544 64a970.88 970.88 0 0 0-115.2 508.8z m147.2 38.4a518.4 518.4 0 0 1-140.8 0 611.84 611.84 0 0 0 153.6 339.2 520.32 520.32 0 0 0 185.6-76.8A576 576 0 0 1 576 611.2z m-185.6 0a369.28 369.28 0 0 1-89.6-19.2 391.04 391.04 0 0 1-83.2 140.8 576 576 0 0 1-57.6 64 448 448 0 0 0 352 160h6.4c-19.2-32-38.4-83.2-64-140.8a762.24 762.24 0 0 1-64-204.8zM64 508.8V512a448 448 0 0 0 70.4 236.8A320 320 0 0 0 249.6 576 1592.32 1592.32 0 0 1 64 508.8z" p-id="5500"></path></svg>