<svg class="icon" viewBox="0 0 1049 1024" xmlns="http://www.w3.org/2000/svg" width="204.883" height="200"><defs><style/></defs><path d="M524.98 0C234.675 0 0 234.676 0 524.98c0 232.068 150.367 428.5 358.968 498.034 26.075 5.215 35.636-11.299 35.636-25.206 0-12.168-.87-53.888-.87-97.347-146.02 31.29-176.441-62.58-176.441-62.58-23.468-60.842-58.235-76.487-58.235-76.487-47.804-32.16 3.477-32.16 3.477-32.16 53.02 3.477 80.833 53.89 80.833 53.89 46.935 79.963 122.553 57.364 152.974 43.458 4.346-33.898 18.253-57.366 33.029-70.403-116.47-12.169-239.023-57.365-239.023-259.013 0-57.365 20.86-104.3 53.89-140.806-5.216-13.037-23.469-66.926 5.214-139.067 0 0 44.328-13.907 144.282 53.888 41.72-11.299 86.918-17.383 131.245-17.383s89.525 6.084 131.245 17.383c99.955-67.795 144.283-53.888 144.283-53.888 28.682 72.141 10.43 126.03 5.215 139.067 33.897 36.505 53.888 83.44 53.888 140.806 0 201.648-122.553 245.975-239.891 259.013 19.122 16.514 35.636 47.804 35.636 97.347 0 70.403-.87 126.899-.87 144.282 0 13.907 9.562 30.421 35.637 25.206 208.6-69.533 358.967-265.966 358.967-498.035C1049.96 234.676 814.413 0 524.98 0z"/></svg>